<svg data-v-423bf9ae="" xmlns="http://www.w3.org/2000/svg" viewBox="0 0 328 90" class="iconLeft"><!----><!----><!----><g data-v-423bf9ae="" id="47f7fc18-f432-4538-aea1-0bfea0746ab1" fill="#000000" transform="matrix(4.709576222757963,0,0,4.709576222757963,171.68965741844096,-6.569859694593639)"><path d="M7.97 5.31L7.97 4.58L0.43 4.58L0.43 5.31L3.78 5.31L3.78 14.35L4.62 14.35L4.62 5.31ZM16.00 14.35L16.00 13.65L14.92 13.65L14.92 9.37C14.92 7.85 13.92 6.96 12.29 6.96C10.89 6.96 10.01 7.62 9.63 8.44L10.18 8.83C10.57 8.05 11.26 7.64 12.25 7.64C13.43 7.64 14.13 8.25 14.13 9.45L14.13 10.33L12.36 10.33C10.21 10.33 9.39 11.13 9.39 12.40C9.39 13.73 10.32 14.52 11.83 14.52C13.08 14.52 13.78 13.97 14.10 13.22L14.17 13.22L14.17 13.47C14.21 14 14.46 14.35 15.11 14.35ZM11.96 13.85C10.92 13.85 10.23 13.40 10.23 12.57L10.23 12.21C10.23 11.42 10.86 10.93 12.36 10.93L14.13 10.93L14.13 12.26C14.13 13.23 13.17 13.85 11.96 13.85ZM19.12 14.35L19.12 9.27C19.12 8.18 20.09 7.67 21.08 7.67C22.30 7.67 22.97 8.34 22.97 9.83L22.97 14.35L23.77 14.35L23.77 9.69C23.77 7.94 22.85 6.96 21.29 6.96C20.08 6.96 19.46 7.57 19.18 8.25L19.12 8.25L19.12 7.13L18.33 7.13L18.33 14.35ZM32.96 15.20C32.96 14.08 32.20 13.37 30.45 13.37L28.73 13.37C27.93 13.37 27.55 13.16 27.55 12.74C27.55 12.24 28.08 11.94 28.67 11.80C28.92 11.86 29.15 11.87 29.40 11.87C31.00 11.87 32.06 10.88 32.06 9.42C32.06 8.68 31.79 8.06 31.33 7.64L31.33 6.99L32.98 6.99L32.98 6.29L31.57 6.29C31.08 6.29 30.88 6.58 30.88 7.03L30.88 7.32C30.48 7.08 29.97 6.96 29.40 6.96C27.79 6.96 26.75 7.95 26.75 9.42C26.75 10.46 27.26 11.24 28.11 11.61L28.11 11.66C27.41 11.84 26.85 12.21 26.85 12.91C26.85 13.38 27.08 13.71 27.54 13.89L27.54 14C26.74 14.24 26.26 14.70 26.26 15.51C26.26 16.65 27.19 17.32 29.43 17.32C31.72 17.32 32.96 16.65 32.96 15.20ZM32.20 15.23C32.20 16.20 31.30 16.67 29.88 16.67L28.94 16.67C27.68 16.67 27.05 16.11 27.05 15.36C27.05 14.71 27.44 14.32 28.08 14.11L30.45 14.11C31.75 14.11 32.20 14.55 32.20 15.23ZM29.40 11.24C28.22 11.24 27.59 10.57 27.59 9.65L27.59 9.18C27.59 8.25 28.21 7.59 29.40 7.59C30.60 7.59 31.22 8.25 31.22 9.18L31.22 9.65C31.22 10.57 30.60 11.24 29.40 11.24Z"></path></g><defs data-v-423bf9ae=""><linearGradient data-v-423bf9ae="" gradientTransform="rotate(25)" id="0cfada3e-9e94-4c55-a8d5-b11a17374d2b" x1="0%" y1="0%" x2="100%" y2="0%"><stop data-v-423bf9ae="" offset="0%" style="stop-color: rgb(1, 100, 139); stop-opacity: 1;"></stop><stop data-v-423bf9ae="" offset="100%" style="stop-color: rgb(91, 208, 164); stop-opacity: 1;"></stop></linearGradient></defs><g data-v-423bf9ae="" id="ba021037-0b94-4b7b-98ec-b70a8624f613" transform="matrix(4.803586662404586,0,0,4.803586662404586,0.14261340152661717,-31.22538662899096)" stroke="none" fill="url(#0cfada3e-9e94-4c55-a8d5-b11a17374d2b)"><path d="M16 19.586l7.496-12.954H8.504zM7.496 12.414L0 25.368h14.992zM24.504 12.414l-7.496 12.954H32z"></path></g><!----></svg>